<svg xmlns="http://www.w3.org/2000/svg" xmlns:xlink="http://www.w3.org/1999/xlink" width="1080" zoomAndPan="magnify" viewBox="0 0 810 809.999993" height="1080" preserveAspectRatio="xMidYMid meet" version="1.0"><path fill="#d80202" d="M 145.339844 667.75 L 259.511719 481.90625 C 284.179688 484.121094 308.699219 470.675781 328.933594 450.585938 C 358.03125 421.484375 380.332031 376.722656 378.117188 338.605469 C 375.902344 275.96875 306.484375 244.648438 243.855469 316.152344 C 214.757812 349.6875 187.878906 407.890625 210.328125 448.222656 L 100.585938 611.757812 C 0 466.246094 20.085938 269.320312 143.125 143.898438 C 288.609375 0.601562 521.390625 0.601562 664.511719 143.898438 C 789.765625 269.171875 810 466.246094 709.265625 611.757812 L 599.671875 450.585938 C 615.328125 428.132812 615.328125 396.8125 599.671875 374.503906 L 523.605469 253.660156 C 516.957031 244.648438 503.515625 253.660156 507.949219 264.890625 L 575.152344 365.640625 L 537.046875 390.164062 L 472.058594 287.195312 C 465.410156 278.183594 449.605469 287.195312 456.398438 296.207031 L 521.242188 399.175781 L 485.496094 421.632812 L 420.65625 320.878906 C 414.011719 311.867188 398.207031 320.878906 405 329.890625 L 483.28125 450.734375 C 496.722656 473.1875 523.605469 486.484375 550.488281 482.050781 L 664.660156 667.898438 C 521.390625 810.898438 288.609375 810.898438 145.339844 667.75 Z M 405 81.261719 C 315.492188 81.261719 234.847656 117.011719 174.4375 175.21875 C 116.242188 235.640625 80.496094 316.300781 80.496094 405.824219 C 80.496094 457.234375 93.9375 506.574219 114.027344 551.339844 L 129.683594 531.246094 C 111.8125 493.132812 102.800781 450.585938 102.800781 405.824219 C 102.800781 320.730469 136.328125 246.867188 190.09375 190.875 C 246.070312 137.101562 322.140625 101.351562 405 101.351562 C 487.859375 101.351562 563.929688 137.25 619.757812 190.875 C 673.523438 246.867188 707.050781 320.730469 707.050781 405.824219 C 707.050781 450.585938 698.042969 493.132812 680.167969 531.097656 L 693.609375 551.191406 C 716.0625 506.429688 729.355469 457.234375 729.355469 405.675781 C 729.355469 316.152344 693.609375 235.492188 633.050781 175.070312 C 575.003906 117.011719 494.507812 81.261719 405 81.261719 Z M 183.445312 643.078125 C 241.640625 696.851562 319.921875 730.386719 405 730.386719 C 490.078125 730.386719 568.359375 696.851562 624.339844 643.078125 L 613.113281 625.203125 C 559.347656 676.613281 485.496094 708.078125 405 708.078125 C 324.503906 708.078125 250.503906 676.613281 196.886719 625.203125 Z M 405 150.695312 C 335.578125 150.695312 270.738281 179.796875 225.984375 224.558594 C 179.015625 271.539062 149.917969 334.175781 149.917969 405.824219 C 149.917969 432.710938 154.347656 457.234375 161.144531 481.90625 L 176.652344 457.234375 C 174.4375 441.574219 172.222656 423.699219 172.222656 405.824219 C 172.222656 340.96875 196.886719 282.765625 239.425781 240.21875 C 281.964844 197.671875 340.160156 173 405 173 C 469.839844 173 528.035156 197.671875 570.574219 240.21875 C 610.898438 282.765625 637.777344 340.96875 637.777344 405.824219 C 637.777344 423.699219 635.5625 441.574219 631.132812 457.234375 L 646.789062 481.90625 C 655.796875 457.234375 660.230469 432.710938 660.230469 405.824219 C 660.230469 334.175781 631.132812 271.539062 584.164062 224.558594 C 539.261719 179.796875 474.421875 150.695312 405 150.695312 Z M 221.554688 582.65625 C 223.769531 582.65625 223.769531 584.871094 225.984375 584.871094 C 270.738281 631.851562 335.578125 660.953125 405 660.953125 C 474.421875 660.953125 539.261719 631.851562 584.015625 584.871094 C 586.230469 584.871094 586.230469 582.65625 588.445312 582.65625 L 577.222656 562.566406 C 575.003906 564.78125 572.789062 566.996094 570.574219 569.214844 C 528.035156 611.757812 469.839844 638.648438 405 638.648438 C 340.160156 638.648438 281.964844 611.757812 239.425781 569.214844 C 237.210938 566.996094 234.996094 564.78125 232.777344 562.566406 Z M 257.296875 526.667969 C 259.511719 531.097656 263.945312 535.679688 268.523438 540.109375 C 304.265625 575.859375 351.382812 596.101562 405 596.101562 C 458.617188 596.101562 505.734375 576.007812 539.261719 540.109375 C 543.691406 535.679688 548.269531 531.097656 552.703125 526.667969 L 541.476562 506.574219 C 537.046875 513.222656 530.25 520.019531 525.820312 526.667969 C 494.507812 555.769531 451.96875 575.859375 405 575.859375 C 358.03125 575.859375 315.492188 555.769531 284.179688 526.667969 C 279.75 520.019531 272.953125 513.222656 268.523438 506.574219 Z M 257.296875 526.667969 " fill-opacity="1" fill-rule="nonzero"/><path fill="#d80202" d="M 521.390625 461.8125 C 510.164062 455.164062 503.515625 448.371094 494.507812 437.144531 L 584.015625 381.152344 C 590.660156 392.378906 595.242188 401.246094 593.023438 414.6875 C 593.023438 441.574219 575.152344 443.789062 581.800781 455.019531 C 601.886719 481.90625 644.425781 544.542969 678.101562 596.101562 C 700.550781 629.636719 718.425781 656.523438 727.285156 667.75 C 745.160156 699.066406 731.71875 705.863281 731.71875 705.863281 C 729.503906 705.863281 716.0625 717.089844 698.1875 687.988281 L 563.925781 466.394531 C 561.710938 464.175781 557.28125 461.960938 552.703125 464.175781 C 543.691406 466.246094 532.613281 464.03125 521.390625 461.8125 Z M 521.390625 461.8125 " fill-opacity="1" fill-rule="nonzero"/><path fill="#d80202" d="M 349.019531 390.164062 C 333.363281 425.914062 295.257812 470.675781 255.082031 461.8125 C 252.867188 461.8125 248.433594 464.03125 246.070312 466.246094 L 111.8125 687.839844 C 91.722656 716.945312 80.496094 705.714844 78.28125 705.714844 C 78.28125 705.714844 62.625 699.066406 82.714844 667.601562 L 228.199219 455.019531 C 230.414062 450.585938 230.414062 448.371094 228.199219 443.789062 C 192.457031 392.378906 281.964844 262.527344 340.160156 300.492188 C 369.257812 318.515625 362.460938 361.0625 349.019531 390.164062 Z M 349.019531 390.164062 " fill-opacity="1" fill-rule="nonzero"/></svg>