<svg xmlns="http://www.w3.org/2000/svg" xmlns:xlink="http://www.w3.org/1999/xlink" width="1445" zoomAndPan="magnify" viewBox="0 0 1083.75 806.24998" height="1075" preserveAspectRatio="xMidYMid meet" version="1.0"><defs><clipPath id="089f4c6d35"><path d="M 278 0 L 1083.121094 0 L 1083.121094 805.5 L 278 805.5 Z M 278 0 " clip-rule="nonzero"/></clipPath><clipPath id="8795d82f94"><path d="M 0.378906 9 L 912 9 L 912 797 L 0.378906 797 Z M 0.378906 9 " clip-rule="nonzero"/></clipPath></defs><g clip-path="url(#089f4c6d35)"><path fill="#ea5044" d="M 1083.304688 402.714844 C 1083.304688 425.816406 1081.511719 448.144531 1077.660156 470.21875 C 1076.378906 478.175781 1074.839844 486.132812 1073.042969 493.832031 C 1069.964844 507.691406 1065.859375 521.039062 1061.496094 534.386719 C 1059.1875 541.058594 1056.621094 547.476562 1054.054688 554.148438 C 1052 559.285156 1049.691406 564.671875 1047.382812 569.808594 C 1044.558594 575.710938 1041.738281 581.613281 1038.914062 587.515625 C 1034.550781 596.242188 1029.675781 604.714844 1024.542969 612.925781 C 1021.464844 618.0625 1018.128906 623.195312 1014.792969 628.070312 C 1010.175781 635 1005.300781 641.675781 1000.167969 648.347656 C 996.574219 652.96875 992.726562 657.589844 988.875 662.207031 C 914.976562 749.988281 804.121094 805.6875 680.441406 805.6875 C 533.664062 805.6875 405.363281 727.144531 335.054688 610.105469 C 324.277344 592.136719 314.78125 573.398438 307.082031 553.894531 C 300.15625 536.953125 294.511719 519.757812 290.148438 501.789062 C 284.757812 480.484375 281.167969 458.667969 279.371094 436.339844 C 278.34375 425.300781 278.085938 414.007812 278.085938 402.972656 C 278.085938 180.4375 458.480469 0 680.953125 0 C 733.042969 0 783.082031 10.011719 828.757812 27.976562 C 841.585938 33.109375 853.902344 38.757812 865.964844 44.917969 C 868.015625 45.945312 870.070312 46.96875 872.121094 48.253906 C 873.148438 48.765625 873.917969 49.28125 874.945312 49.792969 C 879.050781 52.105469 883.414062 54.414062 887.519531 56.980469 C 893.675781 60.574219 899.835938 64.679688 905.738281 68.53125 C 1012.742188 140.65625 1083.304688 263.34375 1083.304688 402.714844 Z M 1083.304688 402.714844 " fill-opacity="1" fill-rule="nonzero"/></g><g clip-path="url(#8795d82f94)"><path fill="#4d4d4d" d="M 0.445312 643.214844 C 0.445312 643.214844 39.191406 614.46875 100.261719 569.035156 C 102.316406 567.496094 104.367188 565.957031 106.675781 564.417969 C 131.3125 547.21875 155.175781 528.226562 178.269531 511.03125 C 180.835938 508.976562 183.402344 507.179688 186.222656 505.125 C 232.414062 470.734375 283.988281 432.488281 337.621094 392.449219 C 338.902344 391.421875 340.441406 390.394531 341.726562 389.367188 C 380.730469 364.214844 418.960938 335.722656 454.886719 305.179688 C 456.167969 304.152344 457.710938 303.128906 458.992188 302.101562 C 503.128906 269.246094 546.75 236.90625 588.0625 206.105469 C 593.964844 201.742188 599.867188 197.378906 605.511719 193.015625 C 626.808594 175.050781 650.675781 160.675781 671.972656 143.480469 C 677.105469 139.628906 682.492188 135.777344 687.625 131.929688 C 694.554688 126.796875 701.480469 121.660156 707.898438 116.785156 C 720.46875 106.773438 733.300781 97.019531 745.617188 88.808594 C 748.695312 86.496094 751.519531 84.445312 754.34375 82.390625 C 779.488281 63.910156 803.097656 44.660156 828.242188 27.464844 C 832.09375 24.640625 835.429688 22.074219 838.507812 19.765625 C 847.488281 13.089844 852.363281 9.496094 852.363281 9.496094 L 875.972656 35.164062 C 875.972656 35.164062 875.203125 35.675781 873.664062 36.960938 C 834.660156 71.867188 793.34375 103.695312 752.800781 132.957031 C 748.953125 135.777344 745.105469 138.859375 741.253906 141.683594 C 725.859375 153.488281 710.71875 165.296875 696.09375 177.871094 C 692.242188 180.953125 688.652344 184.03125 684.800781 186.855469 C 658.628906 207.902344 632.710938 229.71875 606.027344 249.996094 C 602.433594 253.332031 598.585938 256.414062 594.734375 259.492188 C 560.09375 287.214844 519.292969 308.003906 497.996094 348.300781 C 495.171875 352.40625 492.09375 356.515625 489.015625 360.109375 C 454.375 400.40625 401.257812 415.035156 359.429688 443.269531 C 357.632812 444.550781 355.582031 446.09375 353.785156 447.375 C 329.664062 465.597656 306.058594 484.847656 283.988281 506.152344 C 281.9375 507.691406 280.140625 509.234375 278.34375 511.03125 C 257.300781 528.226562 237.03125 546.195312 214.964844 562.621094 C 213.167969 563.902344 211.371094 565.445312 209.574219 566.726562 C 180.835938 589.058594 150.554688 610.105469 122.328125 634.746094 C 120.535156 636.542969 118.738281 638.082031 116.683594 639.878906 C 92.5625 661.953125 69.984375 684.796875 40.21875 696.089844 C 35.339844 697.628906 29.183594 680.175781 20.972656 671.191406 C 19.945312 669.652344 18.917969 668.367188 17.890625 666.828125 C 8.910156 654.765625 0.445312 643.214844 0.445312 643.214844 Z M 96.414062 750.246094 C 105.90625 755.378906 108.988281 763.335938 115.65625 770.523438 C 116.941406 771.804688 117.96875 773.089844 119.25 774.371094 C 129.769531 786.179688 139.265625 796.703125 139.265625 796.703125 C 139.265625 796.703125 154.40625 782.328125 180.320312 757.6875 C 181.605469 756.40625 182.886719 755.121094 184.425781 753.839844 C 201.621094 737.667969 215.734375 720.214844 235.234375 705.328125 C 236.261719 704.300781 237.289062 703.53125 238.3125 702.503906 C 254.222656 687.363281 271.671875 670.933594 290.148438 653.222656 C 292.199219 651.171875 294.253906 649.375 296.304688 647.320312 C 323.507812 621.910156 348.910156 594.703125 376.878906 570.578125 C 378.164062 569.550781 379.1875 568.265625 380.472656 567.242188 C 381.753906 566.214844 382.78125 564.929688 384.0625 563.902344 C 398.175781 550.300781 414.085938 535.925781 428.199219 521.808594 C 429.484375 520.527344 430.765625 519.5 432.050781 518.214844 C 444.878906 506.152344 457.710938 493.832031 470.539062 481.511719 C 471.824219 480.230469 473.105469 478.945312 474.386719 477.917969 C 497.484375 453.535156 522.628906 430.691406 547.519531 407.847656 C 551.113281 404.511719 554.703125 401.433594 558.296875 398.09375 C 589.089844 368.835938 619.113281 340.34375 649.648438 311.339844 C 652.46875 308.515625 655.292969 305.949219 658.371094 303.128906 C 661.195312 300.304688 664.019531 297.738281 666.839844 294.914062 C 687.113281 277.460938 705.84375 258.210938 725.089844 239.472656 C 728.167969 236.394531 731.503906 233.054688 734.839844 229.976562 C 752.546875 213.550781 769.738281 196.867188 787.1875 179.925781 C 790.523438 176.589844 794.117188 173.253906 797.707031 169.914062 C 832.347656 140.140625 867.246094 111.652344 896.757812 76.488281 C 899.835938 73.40625 902.65625 70.839844 904.96875 68.53125 C 909.585938 64.167969 911.894531 61.859375 911.894531 61.859375 L 885.980469 38.242188 C 885.980469 38.242188 885.210938 38.757812 883.925781 40.039062 C 882.644531 41.066406 880.847656 42.863281 878.28125 45.175781 C 844.667969 81.363281 805.148438 113.191406 766.402344 145.273438 C 762.808594 148.355469 759.472656 151.433594 755.882812 154.257812 C 738.6875 169.402344 721.753906 184.289062 705.074219 199.945312 C 701.480469 203.28125 697.890625 206.363281 694.296875 209.699219 C 669.148438 232.03125 643.234375 254.359375 618.597656 276.175781 C 615.007812 279.511719 611.15625 282.851562 607.566406 286.1875 C 574.464844 316.21875 541.363281 347.789062 512.621094 381.15625 C 509.285156 384.492188 505.695312 388.085938 502.359375 391.421875 C 471.050781 421.707031 437.695312 447.632812 399.203125 468.679688 C 397.40625 470.21875 395.355469 471.757812 393.558594 473.554688 C 365.589844 497.425781 338.902344 522.835938 312.472656 549.015625 C 310.675781 550.558594 308.878906 552.351562 307.082031 553.894531 C 283.734375 574.941406 260.382812 595.988281 237.289062 616.265625 C 235.492188 617.804688 233.4375 619.34375 231.640625 620.882812 C 210.601562 637.566406 188.019531 651.941406 163.898438 664.261719 C 161.847656 665.542969 159.792969 667.085938 157.742188 668.367188 C 135.417969 683.769531 116.171875 702.503906 106.421875 731.253906 C 104.878906 736.128906 95.386719 737.667969 91.792969 744.855469 C 91.28125 745.113281 93.332031 747.164062 96.414062 750.246094 Z M 96.414062 750.246094 " fill-opacity="1" fill-rule="nonzero"/></g><path fill="#ffffff" d="M 1061.238281 534.386719 C 1058.929688 541.058594 1056.363281 547.476562 1053.796875 554.148438 C 1044.304688 539.261719 1034.808594 523.605469 1025.3125 506.921875 C 1024.289062 504.871094 1023.003906 502.816406 1021.980469 500.761719 C 994.007812 459.953125 946.539062 429.664062 952.695312 372.429688 C 953.464844 368.578125 953.210938 363.699219 951.925781 358.824219 C 951.414062 357.285156 950.898438 355.488281 950.386719 353.949219 C 932.167969 303.898438 916.257812 253.078125 890.855469 205.847656 C 890.085938 203.796875 889.316406 201.484375 888.546875 199.433594 C 886.234375 193.015625 883.925781 186.855469 881.875 180.953125 C 879.820312 175.050781 877.769531 169.144531 875.972656 163.242188 C 872.378906 146.046875 867.503906 129.105469 862.886719 112.164062 C 859.292969 98.816406 855.445312 85.214844 852.109375 71.609375 C 851.335938 68.015625 850.3125 64.425781 849.542969 60.832031 C 848 57.75 855.957031 55.953125 857.496094 57.75 C 858.777344 59.546875 859.804688 61.34375 860.832031 63.398438 C 867.761719 74.949219 872.378906 87.011719 875.972656 99.332031 C 881.875 118.839844 885.464844 138.859375 891.367188 158.367188 C 893.421875 164.011719 895.472656 169.914062 897.527344 175.820312 C 900.347656 183.777344 903.429688 191.988281 906.507812 200.714844 C 907.277344 202.769531 908.046875 205.078125 908.816406 207.132812 C 932.167969 251.792969 946.28125 299.535156 964.5 345.992188 C 965.011719 347.273438 965.527344 348.558594 966.039062 349.839844 C 967.066406 352.40625 967.835938 355.230469 968.605469 358.3125 C 971.683594 382.179688 965.527344 407.589844 979.640625 428.125 C 1000.167969 453.535156 1025.828125 470.988281 1039.941406 498.710938 C 1040.96875 500.761719 1042.25 502.816406 1043.277344 504.613281 C 1049.433594 514.878906 1055.335938 524.890625 1061.238281 534.386719 Z M 966.296875 505.125 C 965.78125 503.84375 965.269531 502.816406 964.5 501.53125 C 936.785156 461.492188 922.671875 416.832031 908.816406 370.375 C 908.304688 369.089844 907.789062 367.808594 907.277344 366.523438 C 898.550781 315.191406 878.023438 267.449219 855.957031 222.019531 C 855.1875 219.964844 854.417969 217.65625 853.648438 215.601562 C 851.59375 209.1875 849.542969 203.027344 847.488281 197.121094 C 846.71875 194.554688 845.949219 192.246094 845.179688 189.9375 C 844.410156 187.625 843.640625 185.316406 842.871094 183.003906 C 839.277344 168.632812 837.222656 153.230469 834.660156 138.089844 C 832.347656 123.972656 829.527344 109.855469 824.652344 96.507812 C 823.367188 93.171875 822.085938 90.089844 820.546875 86.753906 C 820.03125 85.726562 819.261719 84.699219 818.492188 83.675781 C 817.722656 82.90625 816.953125 82.390625 815.925781 81.878906 C 812.078125 84.1875 809.511719 87.78125 808.226562 91.886719 C 806.433594 97.277344 806.6875 103.695312 807.714844 110.882812 C 809.769531 123.203125 814.644531 137.574219 819.003906 151.433594 C 823.113281 164.523438 826.703125 177.101562 826.445312 187.113281 C 827.988281 191.476562 829.269531 195.839844 830.808594 199.945312 C 832.605469 205.847656 834.402344 211.753906 836.453125 217.65625 C 837.222656 219.710938 837.738281 221.761719 838.507812 223.816406 C 839.277344 225.871094 839.789062 227.921875 840.558594 229.976562 C 860.0625 275.40625 879.050781 321.351562 889.828125 368.320312 C 890.855469 370.886719 891.625 373.199219 892.652344 375.765625 C 893.675781 378.332031 894.445312 380.640625 895.472656 383.207031 C 895.988281 384.746094 896.5 386.03125 897.269531 387.570312 C 909.328125 424.789062 923.699219 461.492188 942.945312 495.628906 C 943.972656 497.9375 945.253906 500.507812 946.28125 502.816406 C 969.375 552.351562 991.957031 594.191406 1014.023438 627.8125 C 1017.359375 622.9375 1020.695312 617.804688 1023.773438 612.671875 C 1004.273438 581.101562 984.769531 544.398438 966.296875 505.125 Z M 1047.125 569.550781 C 1034.296875 548.503906 1021.722656 525.917969 1009.40625 502.300781 C 1008.890625 501.019531 1008.121094 499.992188 1007.609375 498.710938 C 969.632812 460.980469 944.996094 418.371094 940.121094 363.1875 C 940.121094 361.90625 939.867188 360.621094 939.867188 359.082031 C 931.910156 306.976562 911.382812 257.695312 884.953125 211.238281 C 884.183594 209.1875 883.414062 207.132812 882.644531 205.078125 C 880.332031 199.175781 878.28125 193.273438 876.226562 187.367188 C 874.433594 182.492188 872.636719 177.617188 871.097656 172.996094 C 864.9375 154.773438 862.371094 135.523438 858.007812 116.269531 C 855.1875 102.925781 851.335938 89.835938 845.179688 77.515625 C 844.921875 77 844.667969 76.230469 844.410156 75.71875 C 843.382812 73.664062 841.84375 71.867188 839.789062 71.097656 C 837.996094 70.585938 836.453125 70.328125 835.171875 70.070312 C 825.933594 68.53125 826.449219 72.382812 828.242188 75.71875 C 829.011719 77.515625 830.296875 79.3125 830.296875 79.824219 C 831.324219 82.648438 832.347656 85.726562 833.375 88.550781 C 837.738281 102.15625 841.074219 115.757812 843.894531 129.363281 C 847.746094 146.816406 851.082031 164.011719 856.214844 180.695312 C 857.496094 184.546875 859.035156 188.394531 860.320312 192.246094 C 862.371094 198.148438 864.425781 204.050781 866.734375 210.210938 C 867.503906 212.265625 868.273438 214.320312 869.042969 216.371094 C 895.472656 262.574219 916 313.394531 925.496094 366.011719 C 926.007812 368.578125 926.265625 371.144531 926.777344 373.453125 C 936.273438 423.503906 959.109375 465.34375 992.726562 505.894531 C 993.753906 507.949219 995.035156 510.257812 996.0625 512.3125 C 1010.429688 539.777344 1024.542969 564.671875 1038.402344 587.003906 Z M 1073.300781 463.03125 C 1072.273438 461.234375 1070.988281 459.4375 1069.964844 457.386719 C 1044.816406 421.453125 1020.953125 385.003906 1008.121094 342.398438 C 1007.609375 341.113281 1006.839844 340.085938 1006.324219 338.804688 C 1002.21875 330.332031 998.113281 321.605469 993.753906 312.878906 C 993.238281 311.597656 992.46875 310.3125 991.957031 309.285156 C 991.441406 308.003906 990.671875 306.71875 990.160156 305.695312 C 974.761719 275.40625 961.933594 243.578125 948.589844 212.523438 C 947.5625 210.210938 946.539062 207.902344 945.765625 205.847656 C 935.246094 180.953125 925.753906 157.851562 917.542969 137.0625 C 915.488281 131.671875 913.179688 126.28125 911.382812 121.40625 C 905.992188 106.773438 900.347656 92.65625 894.960938 78.539062 C 892.136719 71.355469 889.570312 64.167969 886.75 56.722656 C 885.464844 53.386719 884.4375 50.050781 883.15625 46.714844 C 882.898438 45.945312 882.644531 45.429688 882.644531 45.429688 C 882.386719 44.402344 881.617188 43.378906 881.105469 42.605469 C 880.332031 41.835938 879.5625 41.066406 878.539062 40.554688 C 876.742188 39.527344 874.433594 39.527344 872.121094 40.296875 C 871.609375 42.863281 871.609375 45.429688 871.609375 47.996094 C 871.609375 49.28125 871.609375 50.820312 871.609375 52.105469 C 872.378906 65.449219 877.253906 78.539062 883.15625 91.632812 C 890.597656 108.828125 899.578125 125.769531 902.144531 142.964844 C 904.199219 148.355469 906.507812 154 908.816406 159.90625 C 914.207031 173.507812 920.105469 187.882812 926.523438 202.769531 C 927.292969 204.824219 928.320312 207.132812 929.34375 209.1875 C 947.820312 246.660156 960.648438 286.445312 981.179688 325.199219 C 981.949219 326.996094 982.71875 328.539062 983.488281 330.332031 C 985.027344 333.671875 986.824219 337.007812 988.363281 340.34375 C 988.875 341.628906 989.644531 342.910156 990.160156 344.195312 C 995.292969 396.042969 1028.648438 434.285156 1060.726562 474.582031 C 1062.007812 476.636719 1063.035156 478.433594 1064.316406 480.484375 C 1067.140625 485.105469 1069.964844 489.46875 1072.785156 493.832031 C 1074.582031 486.132812 1076.121094 478.175781 1077.40625 470.21875 C 1076.121094 467.910156 1074.839844 465.597656 1073.300781 463.03125 Z M 921.902344 488.1875 L 920.363281 484.335938 C 911.382812 464.570312 903.429688 445.578125 896.5 425.558594 C 895.988281 424.273438 895.472656 422.992188 894.960938 421.707031 C 893.675781 417.089844 892.136719 414.007812 890.597656 409.902344 C 890.085938 408.617188 889.570312 407.335938 889.058594 406.050781 C 884.183594 393.476562 879.5625 380.898438 875.203125 368.320312 C 874.433594 365.753906 873.40625 363.445312 872.636719 360.878906 C 861.859375 320.066406 849.285156 278.742188 831.835938 238.191406 C 831.324219 236.136719 830.554688 234.082031 830.039062 232.285156 C 829.527344 230.234375 828.757812 228.4375 828.242188 226.382812 C 826.445312 220.734375 824.90625 215.347656 823.367188 210.210938 C 822.085938 205.847656 820.800781 201.230469 819.519531 196.609375 C 818.234375 191.988281 816.953125 187.625 815.925781 183.003906 C 812.589844 176.589844 811.5625 167.863281 810.539062 158.878906 C 809.253906 143.476562 808.742188 126.792969 801.558594 116.269531 C 798.476562 111.90625 794.371094 108.828125 788.214844 107.289062 C 787.957031 107.289062 787.699219 107.03125 787.1875 107.03125 C 787.1875 107.289062 787.1875 107.800781 787.1875 108.058594 C 786.417969 114.988281 786.417969 121.660156 786.929688 128.335938 C 788.214844 143.222656 792.0625 157.339844 795.398438 171.710938 C 795.910156 174.023438 796.425781 176.332031 796.9375 178.640625 C 798.222656 183.003906 799.503906 187.367188 800.785156 191.730469 C 804.636719 204.824219 808.742188 217.914062 812.335938 231.003906 C 814.128906 236.648438 815.925781 242.296875 817.722656 248.199219 C 818.234375 250.253906 819.003906 252.304688 819.777344 254.359375 C 820.289062 256.414062 821.058594 258.464844 821.828125 260.519531 C 832.09375 292.859375 843.125 324.6875 853.902344 356.515625 C 854.671875 358.824219 855.699219 361.390625 856.46875 363.957031 C 864.167969 386.03125 872.636719 408.617188 881.359375 431.460938 C 916.515625 522.578125 952.695312 600.351562 988.875 662.207031 C 992.726562 657.585938 996.316406 652.96875 1000.167969 648.347656 C 973.992188 602.917969 947.820312 549.273438 921.902344 488.1875 Z M 921.902344 488.1875 " fill-opacity="1" fill-rule="nonzero"/></svg>