<svg xmlns="http://www.w3.org/2000/svg" xmlns:xlink="http://www.w3.org/1999/xlink" width="500" zoomAndPan="magnify" viewBox="0 0 375 374.999991" height="500" preserveAspectRatio="xMidYMid meet" version="1.0"><path fill="#ffffff" d="M 173.78125 26.40625 C 166.261719 28.035156 158.535156 34.332031 158.535156 38.90625 C 158.535156 42.460938 162.601562 48.355469 166.464844 50.386719 C 169.207031 51.910156 170.222656 53.132812 170.222656 54.960938 C 170.222656 57.296875 169.816406 57.5 160.773438 58.71875 C 99.085938 66.949219 50 113.691406 38.007812 175.46875 C 36.078125 185.425781 35.46875 209 36.890625 221.292969 L 37.703125 228.710938 L 18.292969 228.710938 L 18.292969 243.953125 L 81.097656 243.953125 L 81.605469 241.617188 C 81.910156 240.398438 83.636719 232.980469 85.570312 225.15625 L 88.921875 210.929688 L 89.226562 241.921875 L 89.53125 272.910156 L 100.609375 280.53125 L 111.789062 288.152344 L 111.789062 295.265625 C 111.6875 302.175781 111.585938 302.480469 108.433594 304.410156 C 103.046875 307.761719 100.609375 312.539062 100.609375 319.246094 C 100.609375 324.832031 100.8125 325.445312 104.980469 329.710938 C 110.164062 335.097656 115.242188 336.824219 121.339844 335.300781 C 129.269531 333.265625 134.144531 326.867188 134.144531 318.636719 C 134.144531 312.539062 131.707031 307.964844 126.523438 304.714844 L 122.96875 302.378906 L 122.96875 292.21875 L 122.867188 282.054688 L 111.789062 274.539062 L 100.609375 267.019531 L 100.609375 243.953125 L 128.046875 243.953125 L 128.046875 200.464844 L 123.578125 197.824219 C 114.9375 192.742188 108.738281 183.191406 104.472656 168.152344 C 100.304688 153.417969 101.828125 125.679688 107.316406 117.144531 C 108.941406 114.707031 112.703125 114.199219 114.632812 116.128906 C 115.546875 117.042969 115.855469 124.257812 115.855469 142.546875 C 115.855469 166.425781 115.957031 167.847656 117.886719 169.777344 C 120.425781 172.320312 122.460938 172.320312 125 169.777344 C 126.929688 167.847656 127.03125 166.425781 127.03125 143.5625 C 127.03125 116.332031 127.335938 114.910156 133.535156 114.910156 C 140.039062 114.910156 140.242188 115.925781 140.242188 142.140625 C 140.242188 166.527344 140.753906 170.183594 144.511719 171.402344 C 145.527344 171.710938 147.5625 171.199219 148.882812 170.386719 L 151.421875 168.761719 L 151.421875 143.5625 C 151.421875 115.824219 151.726562 114.503906 157.011719 115.113281 C 159.554688 115.316406 160.265625 116.128906 161.382812 119.480469 C 169.613281 143.867188 165.039062 176.789062 151.320312 191.625 C 148.882812 194.265625 145.222656 197.210938 143.089844 198.332031 L 139.226562 200.261719 L 139.226562 264.171875 L 146.847656 271.082031 L 154.472656 277.992188 L 154.472656 302.683594 L 151.015625 304.917969 C 146.035156 307.964844 142.886719 314.875 143.699219 320.871094 C 144.917969 329.710938 151.726562 335.605469 160.671875 335.605469 C 169.613281 335.503906 176.21875 329.609375 177.4375 320.871094 C 178.253906 314.976562 175.203125 308.171875 170.222656 304.816406 L 166.667969 302.378906 L 166.566406 288.863281 C 166.464844 281.546875 166.363281 275.046875 166.261719 274.539062 C 166.261719 274.132812 162.601562 270.371094 158.332031 266.308594 L 150.40625 258.992188 L 150.40625 243.953125 L 209.347656 243.953125 L 209.347656 258.789062 L 201.21875 266.714844 L 193.089844 274.539062 L 193.089844 302.378906 L 189.125 305.222656 C 177.640625 313.25 181.199219 331.640625 194.917969 335.300781 C 205.792969 338.246094 216.464844 329.609375 216.464844 317.824219 C 216.464844 314.0625 212.296875 307.050781 208.738281 304.917969 L 205.285156 302.683594 L 205.285156 277.992188 L 220.527344 264.171875 L 220.527344 200.261719 L 216.464844 198.636719 C 211.28125 196.5 203.355469 187.863281 199.796875 180.347656 C 194.105469 168.253906 192.683594 148.035156 196.542969 135.027344 C 200.40625 122.632812 207.925781 112.269531 215.957031 108.304688 C 221.644531 105.5625 230.894531 105.664062 236.382812 108.507812 C 249.796875 115.621094 259.554688 138.179688 257.722656 157.992188 C 255.894531 177.398438 247.765625 192.640625 236.28125 198.230469 L 231.707031 200.464844 L 231.707031 243.953125 L 259.144531 243.953125 L 259.144531 267.121094 L 247.96875 274.539062 L 236.789062 282.054688 L 236.789062 292.21875 L 236.6875 302.378906 L 233.433594 304.410156 C 228.355469 307.660156 225.609375 312.539062 225.609375 318.535156 C 225.609375 331.335938 238.007812 339.261719 249.695312 333.980469 C 255.792969 331.335938 258.535156 327.070312 258.941406 319.652344 C 259.246094 314.570312 258.941406 312.945312 256.910156 310 C 255.589844 308.070312 253.046875 305.527344 251.320312 304.410156 C 248.171875 302.480469 248.070312 302.175781 247.96875 295.265625 L 247.96875 288.152344 L 256.097656 282.566406 C 260.570312 279.515625 265.546875 276.0625 267.175781 274.945312 L 270.222656 272.910156 L 270.527344 241.921875 L 270.832031 210.929688 L 274.1875 225.15625 C 276.117188 232.980469 277.84375 240.398438 278.152344 241.617188 L 278.660156 243.953125 L 341.464844 243.953125 L 341.464844 228.710938 L 321.847656 228.710938 L 322.5625 224.34375 C 326.421875 197.925781 322.664062 168.355469 312.195312 144.578125 C 291.667969 97.535156 249.59375 65.730469 198.679688 58.71875 C 190.039062 57.5 189.53125 57.296875 189.226562 54.757812 C 189.023438 52.726562 189.53125 51.910156 191.871094 50.996094 C 196.238281 49.167969 200.203125 44.597656 200.8125 40.632812 C 202.234375 31.792969 186.6875 23.664062 173.78125 26.40625 Z M 121.136719 314.773438 C 123.171875 316.605469 123.578125 321.175781 121.746094 323.003906 C 120.121094 324.628906 114.632812 324.628906 113.007812 323.003906 C 111.179688 321.175781 111.484375 315.382812 113.617188 314.164062 C 116.160156 312.640625 119.003906 312.84375 121.136719 314.773438 Z M 165.140625 315.484375 C 168.496094 320.566406 164.429688 325.445312 158.128906 323.816406 C 152.4375 322.394531 154.574219 313.046875 160.570312 313.046875 C 162.601562 313.046875 164.125 313.859375 165.140625 315.484375 Z M 203.964844 315.6875 C 205.488281 318.128906 205.488281 318.636719 204.167969 321.074219 C 203.046875 323.105469 201.929688 323.714844 199.1875 323.714844 C 196.441406 323.714844 195.324219 323.105469 194.207031 321.074219 C 192.886719 318.636719 192.886719 318.128906 194.410156 315.6875 C 195.628906 313.859375 197.054688 313.046875 199.1875 313.046875 C 201.320312 313.046875 202.742188 313.859375 203.964844 315.6875 Z M 246.339844 314.671875 C 248.273438 316.5 248.476562 321.277344 246.746094 323.003906 C 245.019531 324.730469 240.242188 324.527344 238.414062 322.597656 C 234.960938 319.144531 237.5 313.046875 242.378906 313.046875 C 243.699219 313.046875 245.527344 313.757812 246.339844 314.671875 Z M 246.339844 314.671875 " fill-opacity="1" fill-rule="nonzero"/></svg>